<mxfile host="app.diagrams.net" agent="Mozilla/5.0 (Windows NT 10.0; Win64; x64) AppleWebKit/537.36 (KHTML, like Gecko) Chrome/131.0.0.0 Safari/537.36" version="26.0.9">
  <diagram name="PÃ¡gina-1" id="G1nmBamG-g-LkjHCCQHq">
    <mxGraphModel dx="2049" dy="1054" grid="1" gridSize="10" guides="1" tooltips="1" connect="1" arrows="1" fold="1" page="1" pageScale="1" pageWidth="850" pageHeight="1100" math="0" shadow="0">
      <root>
        <mxCell id="0" />
        <mxCell id="1" parent="0" />
        <mxCell id="hXe8stAZ6BUTFzs2v0PE-7" style="edgeStyle=orthogonalEdgeStyle;rounded=0;orthogonalLoop=1;jettySize=auto;html=1;entryX=0;entryY=0.5;entryDx=0;entryDy=0;fillColor=#dae8fc;strokeColor=#6c8ebf;" edge="1" parent="1" source="hXe8stAZ6BUTFzs2v0PE-1" target="hXe8stAZ6BUTFzs2v0PE-5">
          <mxGeometry relative="1" as="geometry" />
        </mxCell>
        <mxCell id="hXe8stAZ6BUTFzs2v0PE-8" style="edgeStyle=orthogonalEdgeStyle;rounded=0;orthogonalLoop=1;jettySize=auto;html=1;fillColor=#dae8fc;strokeColor=#6c8ebf;" edge="1" parent="1" source="hXe8stAZ6BUTFzs2v0PE-1" target="hXe8stAZ6BUTFzs2v0PE-3">
          <mxGeometry relative="1" as="geometry">
            <Array as="points">
              <mxPoint x="494" y="151" />
            </Array>
          </mxGeometry>
        </mxCell>
        <mxCell id="hXe8stAZ6BUTFzs2v0PE-11" style="edgeStyle=orthogonalEdgeStyle;rounded=0;orthogonalLoop=1;jettySize=auto;html=1;fillColor=#dae8fc;strokeColor=#6c8ebf;" edge="1" parent="1" source="hXe8stAZ6BUTFzs2v0PE-1" target="hXe8stAZ6BUTFzs2v0PE-4">
          <mxGeometry relative="1" as="geometry">
            <mxPoint x="564" y="261" as="targetPoint" />
            <Array as="points">
              <mxPoint x="494" y="291" />
            </Array>
          </mxGeometry>
        </mxCell>
        <mxCell id="hXe8stAZ6BUTFzs2v0PE-12" style="edgeStyle=orthogonalEdgeStyle;rounded=0;orthogonalLoop=1;jettySize=auto;html=1;entryX=0;entryY=0.5;entryDx=0;entryDy=0;fillColor=#dae8fc;strokeColor=#6c8ebf;" edge="1" parent="1" source="hXe8stAZ6BUTFzs2v0PE-1" target="hXe8stAZ6BUTFzs2v0PE-2">
          <mxGeometry relative="1" as="geometry">
            <Array as="points">
              <mxPoint x="454" y="71" />
            </Array>
          </mxGeometry>
        </mxCell>
        <mxCell id="hXe8stAZ6BUTFzs2v0PE-1" value="SERVICTECDISMAC.WEBAPI" style="rounded=1;whiteSpace=wrap;html=1;fillColor=#dae8fc;strokeColor=#6c8ebf;" vertex="1" parent="1">
          <mxGeometry x="365" y="181" width="190" height="60" as="geometry" />
        </mxCell>
        <mxCell id="hXe8stAZ6BUTFzs2v0PE-2" value="INFRASTRUCTURE.IDENTITY" style="rounded=1;whiteSpace=wrap;html=1;fillColor=#d5e8d4;strokeColor=#82b366;" vertex="1" parent="1">
          <mxGeometry x="695" y="41" width="200" height="60" as="geometry" />
        </mxCell>
        <mxCell id="hXe8stAZ6BUTFzs2v0PE-3" value="INFRASTRUCTURE.PERSISTENCE" style="rounded=1;whiteSpace=wrap;html=1;fillColor=#d5e8d4;strokeColor=#82b366;" vertex="1" parent="1">
          <mxGeometry x="695" y="121" width="200" height="60" as="geometry" />
        </mxCell>
        <mxCell id="hXe8stAZ6BUTFzs2v0PE-4" value="INFRASTRUCTURE.RESOURCES" style="rounded=1;whiteSpace=wrap;html=1;fillColor=#d5e8d4;strokeColor=#82b366;" vertex="1" parent="1">
          <mxGeometry x="695" y="261" width="200" height="60" as="geometry" />
        </mxCell>
        <mxCell id="hXe8stAZ6BUTFzs2v0PE-14" style="edgeStyle=orthogonalEdgeStyle;rounded=0;orthogonalLoop=1;jettySize=auto;html=1;fillColor=#f8cecc;strokeColor=#b85450;" edge="1" parent="1" source="hXe8stAZ6BUTFzs2v0PE-5" target="hXe8stAZ6BUTFzs2v0PE-6">
          <mxGeometry relative="1" as="geometry">
            <Array as="points">
              <mxPoint x="1334" y="211" />
            </Array>
          </mxGeometry>
        </mxCell>
        <mxCell id="hXe8stAZ6BUTFzs2v0PE-5" value="SERVICTECDISMAC.APPLICATION" style="rounded=1;whiteSpace=wrap;html=1;fillColor=#f8cecc;strokeColor=#b85450;" vertex="1" parent="1">
          <mxGeometry x="985" y="181" width="200" height="60" as="geometry" />
        </mxCell>
        <mxCell id="hXe8stAZ6BUTFzs2v0PE-6" value="SERVICTECDISMAC.DOMAIN" style="rounded=1;whiteSpace=wrap;html=1;fillColor=#ffe6cc;strokeColor=#d79b00;" vertex="1" parent="1">
          <mxGeometry x="1195" y="41" width="200" height="60" as="geometry" />
        </mxCell>
        <mxCell id="hXe8stAZ6BUTFzs2v0PE-16" style="edgeStyle=orthogonalEdgeStyle;rounded=0;orthogonalLoop=1;jettySize=auto;html=1;fillColor=#d5e8d4;strokeColor=#82b366;" edge="1" parent="1" source="hXe8stAZ6BUTFzs2v0PE-3" target="hXe8stAZ6BUTFzs2v0PE-6">
          <mxGeometry relative="1" as="geometry">
            <Array as="points">
              <mxPoint x="1254" y="141" />
            </Array>
          </mxGeometry>
        </mxCell>
        <mxCell id="hXe8stAZ6BUTFzs2v0PE-17" style="edgeStyle=orthogonalEdgeStyle;rounded=0;orthogonalLoop=1;jettySize=auto;html=1;entryX=0.55;entryY=0.95;entryDx=0;entryDy=0;entryPerimeter=0;fillColor=#d5e8d4;strokeColor=#82b366;" edge="1" parent="1" source="hXe8stAZ6BUTFzs2v0PE-4" target="hXe8stAZ6BUTFzs2v0PE-5">
          <mxGeometry relative="1" as="geometry" />
        </mxCell>
        <mxCell id="hXe8stAZ6BUTFzs2v0PE-18" style="edgeStyle=orthogonalEdgeStyle;rounded=0;orthogonalLoop=1;jettySize=auto;html=1;fillColor=#d5e8d4;strokeColor=#82b366;" edge="1" parent="1">
          <mxGeometry relative="1" as="geometry">
            <mxPoint x="894" y="141" as="sourcePoint" />
            <mxPoint x="1054" y="181" as="targetPoint" />
            <Array as="points">
              <mxPoint x="894" y="161" />
              <mxPoint x="1054" y="161" />
              <mxPoint x="1054" y="181" />
            </Array>
          </mxGeometry>
        </mxCell>
        <mxCell id="hXe8stAZ6BUTFzs2v0PE-20" style="edgeStyle=orthogonalEdgeStyle;rounded=0;orthogonalLoop=1;jettySize=auto;html=1;entryX=0.55;entryY=0;entryDx=0;entryDy=0;entryPerimeter=0;fillColor=#d5e8d4;strokeColor=#82b366;" edge="1" parent="1" source="hXe8stAZ6BUTFzs2v0PE-2" target="hXe8stAZ6BUTFzs2v0PE-5">
          <mxGeometry relative="1" as="geometry" />
        </mxCell>
        <mxCell id="hXe8stAZ6BUTFzs2v0PE-28" value="SERVICTECDISMAC" style="swimlane;startSize=20;horizontal=1;containerType=tree;" vertex="1" parent="1">
          <mxGeometry x="140" y="380" width="1420" height="1110" as="geometry" />
        </mxCell>
        <mxCell id="hXe8stAZ6BUTFzs2v0PE-30" value="CORE" style="whiteSpace=wrap;html=1;treeFolding=1;treeMoving=1;newEdgeStyle={&quot;edgeStyle&quot;:&quot;elbowEdgeStyle&quot;,&quot;startArrow&quot;:&quot;none&quot;,&quot;endArrow&quot;:&quot;none&quot;};" vertex="1" parent="hXe8stAZ6BUTFzs2v0PE-28">
          <mxGeometry x="44" y="60" width="120" height="40" as="geometry" />
        </mxCell>
        <mxCell id="hXe8stAZ6BUTFzs2v0PE-51" value="INFASTRUCTURE" style="whiteSpace=wrap;html=1;treeFolding=1;treeMoving=1;newEdgeStyle={&quot;edgeStyle&quot;:&quot;elbowEdgeStyle&quot;,&quot;startArrow&quot;:&quot;none&quot;,&quot;endArrow&quot;:&quot;none&quot;};" vertex="1" parent="hXe8stAZ6BUTFzs2v0PE-28">
          <mxGeometry x="43" y="480" width="120" height="40" as="geometry" />
        </mxCell>
        <mxCell id="hXe8stAZ6BUTFzs2v0PE-52" value="PRESENTATION" style="whiteSpace=wrap;html=1;treeFolding=1;treeMoving=1;newEdgeStyle={&quot;edgeStyle&quot;:&quot;elbowEdgeStyle&quot;,&quot;startArrow&quot;:&quot;none&quot;,&quot;endArrow&quot;:&quot;none&quot;};" vertex="1" parent="hXe8stAZ6BUTFzs2v0PE-28">
          <mxGeometry x="44" y="740" width="120" height="40" as="geometry" />
        </mxCell>
        <mxCell id="hXe8stAZ6BUTFzs2v0PE-53" value="" style="edgeStyle=elbowEdgeStyle;rounded=0;orthogonalLoop=1;jettySize=auto;html=1;elbow=horizontal;startArrow=none;endArrow=none;" edge="1" source="hXe8stAZ6BUTFzs2v0PE-30" target="hXe8stAZ6BUTFzs2v0PE-54" parent="hXe8stAZ6BUTFzs2v0PE-28">
          <mxGeometry relative="1" as="geometry" />
        </mxCell>
        <mxCell id="hXe8stAZ6BUTFzs2v0PE-54" value="DOMAIN" style="whiteSpace=wrap;html=1;treeFolding=1;treeMoving=1;newEdgeStyle={&quot;edgeStyle&quot;:&quot;elbowEdgeStyle&quot;,&quot;startArrow&quot;:&quot;none&quot;,&quot;endArrow&quot;:&quot;none&quot;};" vertex="1" parent="hXe8stAZ6BUTFzs2v0PE-28">
          <mxGeometry x="204" y="60" width="120" height="40" as="geometry" />
        </mxCell>
        <mxCell id="hXe8stAZ6BUTFzs2v0PE-55" value="" style="edgeStyle=elbowEdgeStyle;rounded=0;orthogonalLoop=1;jettySize=auto;html=1;elbow=horizontal;startArrow=none;endArrow=none;" edge="1" source="hXe8stAZ6BUTFzs2v0PE-30" target="hXe8stAZ6BUTFzs2v0PE-56" parent="hXe8stAZ6BUTFzs2v0PE-28">
          <mxGeometry relative="1" as="geometry" />
        </mxCell>
        <mxCell id="hXe8stAZ6BUTFzs2v0PE-56" value="APLICATION" style="whiteSpace=wrap;html=1;treeFolding=1;treeMoving=1;newEdgeStyle={&quot;edgeStyle&quot;:&quot;elbowEdgeStyle&quot;,&quot;startArrow&quot;:&quot;none&quot;,&quot;endArrow&quot;:&quot;none&quot;};" vertex="1" parent="hXe8stAZ6BUTFzs2v0PE-28">
          <mxGeometry x="203" y="160" width="120" height="40" as="geometry" />
        </mxCell>
        <mxCell id="hXe8stAZ6BUTFzs2v0PE-59" value="" style="edgeStyle=elbowEdgeStyle;rounded=0;orthogonalLoop=1;jettySize=auto;html=1;elbow=horizontal;startArrow=none;endArrow=none;" edge="1" source="hXe8stAZ6BUTFzs2v0PE-51" target="hXe8stAZ6BUTFzs2v0PE-60" parent="hXe8stAZ6BUTFzs2v0PE-28">
          <mxGeometry relative="1" as="geometry" />
        </mxCell>
        <mxCell id="hXe8stAZ6BUTFzs2v0PE-60" value="PERSISTENCE" style="whiteSpace=wrap;html=1;treeFolding=1;treeMoving=1;newEdgeStyle={&quot;edgeStyle&quot;:&quot;elbowEdgeStyle&quot;,&quot;startArrow&quot;:&quot;none&quot;,&quot;endArrow&quot;:&quot;none&quot;};" vertex="1" parent="hXe8stAZ6BUTFzs2v0PE-28">
          <mxGeometry x="203" y="480" width="120" height="40" as="geometry" />
        </mxCell>
        <mxCell id="hXe8stAZ6BUTFzs2v0PE-61" value="" style="edgeStyle=elbowEdgeStyle;rounded=0;orthogonalLoop=1;jettySize=auto;html=1;elbow=horizontal;startArrow=none;endArrow=none;" edge="1" source="hXe8stAZ6BUTFzs2v0PE-51" target="hXe8stAZ6BUTFzs2v0PE-62" parent="hXe8stAZ6BUTFzs2v0PE-28">
          <mxGeometry relative="1" as="geometry" />
        </mxCell>
        <mxCell id="hXe8stAZ6BUTFzs2v0PE-62" value="IDENTITY" style="whiteSpace=wrap;html=1;treeFolding=1;treeMoving=1;newEdgeStyle={&quot;edgeStyle&quot;:&quot;elbowEdgeStyle&quot;,&quot;startArrow&quot;:&quot;none&quot;,&quot;endArrow&quot;:&quot;none&quot;};" vertex="1" parent="hXe8stAZ6BUTFzs2v0PE-28">
          <mxGeometry x="203" y="530" width="120" height="40" as="geometry" />
        </mxCell>
        <mxCell id="hXe8stAZ6BUTFzs2v0PE-63" value="" style="edgeStyle=elbowEdgeStyle;rounded=0;orthogonalLoop=1;jettySize=auto;html=1;elbow=horizontal;startArrow=none;endArrow=none;" edge="1" source="hXe8stAZ6BUTFzs2v0PE-51" target="hXe8stAZ6BUTFzs2v0PE-64" parent="hXe8stAZ6BUTFzs2v0PE-28">
          <mxGeometry relative="1" as="geometry" />
        </mxCell>
        <mxCell id="hXe8stAZ6BUTFzs2v0PE-64" value="RESOURCES" style="whiteSpace=wrap;html=1;treeFolding=1;treeMoving=1;newEdgeStyle={&quot;edgeStyle&quot;:&quot;elbowEdgeStyle&quot;,&quot;startArrow&quot;:&quot;none&quot;,&quot;endArrow&quot;:&quot;none&quot;};" vertex="1" parent="hXe8stAZ6BUTFzs2v0PE-28">
          <mxGeometry x="203" y="580" width="120" height="40" as="geometry" />
        </mxCell>
        <mxCell id="hXe8stAZ6BUTFzs2v0PE-65" value="" style="edgeStyle=elbowEdgeStyle;rounded=0;orthogonalLoop=1;jettySize=auto;html=1;elbow=horizontal;startArrow=none;endArrow=none;" edge="1" source="hXe8stAZ6BUTFzs2v0PE-52" target="hXe8stAZ6BUTFzs2v0PE-66" parent="hXe8stAZ6BUTFzs2v0PE-28">
          <mxGeometry relative="1" as="geometry" />
        </mxCell>
        <mxCell id="hXe8stAZ6BUTFzs2v0PE-66" value="WEBAPI" style="whiteSpace=wrap;html=1;treeFolding=1;treeMoving=1;newEdgeStyle={&quot;edgeStyle&quot;:&quot;elbowEdgeStyle&quot;,&quot;startArrow&quot;:&quot;none&quot;,&quot;endArrow&quot;:&quot;none&quot;};" vertex="1" parent="hXe8stAZ6BUTFzs2v0PE-28">
          <mxGeometry x="204" y="740" width="120" height="40" as="geometry" />
        </mxCell>
        <mxCell id="hXe8stAZ6BUTFzs2v0PE-69" value="" style="edgeStyle=elbowEdgeStyle;rounded=0;orthogonalLoop=1;jettySize=auto;html=1;elbow=horizontal;startArrow=none;endArrow=none;" edge="1" target="hXe8stAZ6BUTFzs2v0PE-70" source="hXe8stAZ6BUTFzs2v0PE-54" parent="hXe8stAZ6BUTFzs2v0PE-28">
          <mxGeometry relative="1" as="geometry">
            <mxPoint x="384" y="480" as="sourcePoint" />
          </mxGeometry>
        </mxCell>
        <mxCell id="hXe8stAZ6BUTFzs2v0PE-70" value="Common" style="whiteSpace=wrap;html=1;treeFolding=1;treeMoving=1;newEdgeStyle={&quot;edgeStyle&quot;:&quot;elbowEdgeStyle&quot;,&quot;startArrow&quot;:&quot;none&quot;,&quot;endArrow&quot;:&quot;none&quot;};" vertex="1" parent="hXe8stAZ6BUTFzs2v0PE-28">
          <mxGeometry x="364" y="60" width="120" height="40" as="geometry" />
        </mxCell>
        <mxCell id="hXe8stAZ6BUTFzs2v0PE-71" value="" style="edgeStyle=elbowEdgeStyle;rounded=0;orthogonalLoop=1;jettySize=auto;html=1;elbow=horizontal;startArrow=none;endArrow=none;" edge="1" target="hXe8stAZ6BUTFzs2v0PE-72" source="hXe8stAZ6BUTFzs2v0PE-54" parent="hXe8stAZ6BUTFzs2v0PE-28">
          <mxGeometry relative="1" as="geometry">
            <mxPoint x="384" y="480" as="sourcePoint" />
          </mxGeometry>
        </mxCell>
        <mxCell id="hXe8stAZ6BUTFzs2v0PE-72" value="Feature/Entidades" style="whiteSpace=wrap;html=1;treeFolding=1;treeMoving=1;newEdgeStyle={&quot;edgeStyle&quot;:&quot;elbowEdgeStyle&quot;,&quot;startArrow&quot;:&quot;none&quot;,&quot;endArrow&quot;:&quot;none&quot;};" vertex="1" parent="hXe8stAZ6BUTFzs2v0PE-28">
          <mxGeometry x="364" y="110" width="120" height="40" as="geometry" />
        </mxCell>
        <mxCell id="hXe8stAZ6BUTFzs2v0PE-73" value="" style="edgeStyle=elbowEdgeStyle;rounded=0;orthogonalLoop=1;jettySize=auto;html=1;elbow=horizontal;startArrow=none;endArrow=none;" edge="1" target="hXe8stAZ6BUTFzs2v0PE-74" source="hXe8stAZ6BUTFzs2v0PE-56" parent="hXe8stAZ6BUTFzs2v0PE-28">
          <mxGeometry relative="1" as="geometry">
            <mxPoint x="384" y="480" as="sourcePoint" />
          </mxGeometry>
        </mxCell>
        <mxCell id="hXe8stAZ6BUTFzs2v0PE-74" value="DTOs" style="whiteSpace=wrap;html=1;treeFolding=1;treeMoving=1;newEdgeStyle={&quot;edgeStyle&quot;:&quot;elbowEdgeStyle&quot;,&quot;startArrow&quot;:&quot;none&quot;,&quot;endArrow&quot;:&quot;none&quot;};" vertex="1" parent="hXe8stAZ6BUTFzs2v0PE-28">
          <mxGeometry x="363" y="160" width="120" height="40" as="geometry" />
        </mxCell>
        <mxCell id="hXe8stAZ6BUTFzs2v0PE-75" value="" style="edgeStyle=elbowEdgeStyle;rounded=0;orthogonalLoop=1;jettySize=auto;html=1;elbow=horizontal;startArrow=none;endArrow=none;" edge="1" target="hXe8stAZ6BUTFzs2v0PE-76" source="hXe8stAZ6BUTFzs2v0PE-56" parent="hXe8stAZ6BUTFzs2v0PE-28">
          <mxGeometry relative="1" as="geometry">
            <mxPoint x="384" y="480" as="sourcePoint" />
          </mxGeometry>
        </mxCell>
        <mxCell id="hXe8stAZ6BUTFzs2v0PE-76" value="Features" style="whiteSpace=wrap;html=1;treeFolding=1;treeMoving=1;newEdgeStyle={&quot;edgeStyle&quot;:&quot;elbowEdgeStyle&quot;,&quot;startArrow&quot;:&quot;none&quot;,&quot;endArrow&quot;:&quot;none&quot;};" vertex="1" parent="hXe8stAZ6BUTFzs2v0PE-28">
          <mxGeometry x="363" y="210" width="120" height="40" as="geometry" />
        </mxCell>
        <mxCell id="hXe8stAZ6BUTFzs2v0PE-77" value="" style="edgeStyle=elbowEdgeStyle;rounded=0;orthogonalLoop=1;jettySize=auto;html=1;elbow=horizontal;startArrow=none;endArrow=none;" edge="1" target="hXe8stAZ6BUTFzs2v0PE-78" source="hXe8stAZ6BUTFzs2v0PE-56" parent="hXe8stAZ6BUTFzs2v0PE-28">
          <mxGeometry relative="1" as="geometry">
            <mxPoint x="384" y="480" as="sourcePoint" />
          </mxGeometry>
        </mxCell>
        <mxCell id="hXe8stAZ6BUTFzs2v0PE-78" value="Helpers" style="whiteSpace=wrap;html=1;treeFolding=1;treeMoving=1;newEdgeStyle={&quot;edgeStyle&quot;:&quot;elbowEdgeStyle&quot;,&quot;startArrow&quot;:&quot;none&quot;,&quot;endArrow&quot;:&quot;none&quot;};" vertex="1" parent="hXe8stAZ6BUTFzs2v0PE-28">
          <mxGeometry x="363" y="260" width="120" height="40" as="geometry" />
        </mxCell>
        <mxCell id="hXe8stAZ6BUTFzs2v0PE-79" value="" style="edgeStyle=elbowEdgeStyle;rounded=0;orthogonalLoop=1;jettySize=auto;html=1;elbow=horizontal;startArrow=none;endArrow=none;" edge="1" target="hXe8stAZ6BUTFzs2v0PE-80" source="hXe8stAZ6BUTFzs2v0PE-56" parent="hXe8stAZ6BUTFzs2v0PE-28">
          <mxGeometry relative="1" as="geometry">
            <mxPoint x="384" y="480" as="sourcePoint" />
          </mxGeometry>
        </mxCell>
        <mxCell id="hXe8stAZ6BUTFzs2v0PE-80" value="Interfaces" style="whiteSpace=wrap;html=1;treeFolding=1;treeMoving=1;newEdgeStyle={&quot;edgeStyle&quot;:&quot;elbowEdgeStyle&quot;,&quot;startArrow&quot;:&quot;none&quot;,&quot;endArrow&quot;:&quot;none&quot;};" vertex="1" parent="hXe8stAZ6BUTFzs2v0PE-28">
          <mxGeometry x="363" y="310" width="120" height="40" as="geometry" />
        </mxCell>
        <mxCell id="hXe8stAZ6BUTFzs2v0PE-81" value="" style="edgeStyle=elbowEdgeStyle;rounded=0;orthogonalLoop=1;jettySize=auto;html=1;elbow=horizontal;startArrow=none;endArrow=none;" edge="1" target="hXe8stAZ6BUTFzs2v0PE-82" source="hXe8stAZ6BUTFzs2v0PE-56" parent="hXe8stAZ6BUTFzs2v0PE-28">
          <mxGeometry relative="1" as="geometry">
            <mxPoint x="384" y="480" as="sourcePoint" />
          </mxGeometry>
        </mxCell>
        <mxCell id="hXe8stAZ6BUTFzs2v0PE-82" value="Parameters" style="whiteSpace=wrap;html=1;treeFolding=1;treeMoving=1;newEdgeStyle={&quot;edgeStyle&quot;:&quot;elbowEdgeStyle&quot;,&quot;startArrow&quot;:&quot;none&quot;,&quot;endArrow&quot;:&quot;none&quot;};" vertex="1" parent="hXe8stAZ6BUTFzs2v0PE-28">
          <mxGeometry x="363" y="360" width="120" height="40" as="geometry" />
        </mxCell>
        <mxCell id="hXe8stAZ6BUTFzs2v0PE-83" value="" style="edgeStyle=elbowEdgeStyle;rounded=0;orthogonalLoop=1;jettySize=auto;html=1;elbow=horizontal;startArrow=none;endArrow=none;" edge="1" target="hXe8stAZ6BUTFzs2v0PE-84" source="hXe8stAZ6BUTFzs2v0PE-56" parent="hXe8stAZ6BUTFzs2v0PE-28">
          <mxGeometry relative="1" as="geometry">
            <mxPoint x="304" y="460" as="sourcePoint" />
          </mxGeometry>
        </mxCell>
        <mxCell id="hXe8stAZ6BUTFzs2v0PE-84" value="Wrappers" style="whiteSpace=wrap;html=1;treeFolding=1;treeMoving=1;newEdgeStyle={&quot;edgeStyle&quot;:&quot;elbowEdgeStyle&quot;,&quot;startArrow&quot;:&quot;none&quot;,&quot;endArrow&quot;:&quot;none&quot;};" vertex="1" parent="hXe8stAZ6BUTFzs2v0PE-28">
          <mxGeometry x="363" y="410" width="120" height="40" as="geometry" />
        </mxCell>
      </root>
    </mxGraphModel>
  </diagram>
</mxfile>
